<svg width="500" height="32" viewBox="0 0 500 32" fill="none" xmlns="http://www.w3.org/2000/svg">
<path d="M19.3086 31V2.5625H13.8008L13.7812 20.8242L5.92969 2.5625H0.402344V31H5.92969V12.6602L13.8398 31H19.3086ZM35.0312 31.3906C37.0755 31.3906 38.8464 30.9935 40.3438 30.1992C41.8411 29.4049 42.9349 28.5195 43.625 27.543L40.9102 24.6133C40.2852 25.4206 39.4714 26.026 38.4688 26.4297C37.4661 26.8333 36.431 27.0352 35.3633 27.0352C34.6081 27.0352 33.9115 26.918 33.2734 26.6836C32.6354 26.4492 32.069 26.1172 31.5742 25.6875C31.0924 25.2708 30.7083 24.8086 30.4219 24.3008C30.1354 23.7799 29.901 23.0964 29.7188 22.25V22.1914H44.0547V19.8867C44.0547 18.3372 43.8398 16.9245 43.4102 15.6484C42.9805 14.3594 42.3555 13.2591 41.5352 12.3477C40.7018 11.4362 39.6862 10.7331 38.4883 10.2383C37.3034 9.73047 35.9492 9.47656 34.4258 9.47656C32.9544 9.47656 31.5938 9.74349 30.3438 10.2773C29.0938 10.8112 28.013 11.5599 27.1016 12.5234C26.1901 13.487 25.4805 14.6393 24.9727 15.9805C24.4648 17.3086 24.2109 18.7799 24.2109 20.3945V21.1758C24.2109 22.5951 24.4648 23.9297 24.9727 25.1797C25.4935 26.4167 26.2292 27.4909 27.1797 28.4023C28.1302 29.3268 29.2695 30.056 30.5977 30.5898C31.9258 31.1237 33.4036 31.3906 35.0312 31.3906ZM34.3867 13.8711C35.0768 13.8711 35.6823 13.9818 36.2031 14.2031C36.737 14.4115 37.1862 14.6979 37.5508 15.0625C37.9154 15.4401 38.2018 15.8828 38.4102 16.3906C38.6185 16.8984 38.7227 17.4388 38.7227 18.0117V18.4414H29.8164C29.9466 17.7513 30.1419 17.1263 30.4023 16.5664C30.6628 16.0065 30.9883 15.5247 31.3789 15.1211C31.7565 14.7174 32.1992 14.4115 32.707 14.2031C33.2148 13.9818 33.7747 13.8711 34.3867 13.8711ZM48.8008 31H54.25V15.9805C54.4323 15.694 54.6341 15.4336 54.8555 15.1992C55.0768 14.9648 55.3242 14.763 55.5977 14.5938C55.9362 14.3594 56.3203 14.1836 56.75 14.0664C57.1927 13.9492 57.6745 13.8906 58.1953 13.8906C58.8203 13.8906 59.3802 13.9557 59.875 14.0859C60.3698 14.2031 60.793 14.418 61.1445 14.7305C61.4961 15.043 61.763 15.4727 61.9453 16.0195C62.1406 16.5534 62.2383 17.237 62.2383 18.0703V31H67.668V17.9922C67.668 16.4557 67.4857 15.1536 67.1211 14.0859C66.7695 13.0052 66.2747 12.1198 65.6367 11.4297C64.9857 10.7526 64.2174 10.2578 63.332 9.94531C62.4466 9.63281 61.4701 9.47656 60.4023 9.47656C59.569 9.47656 58.7812 9.59375 58.0391 9.82812C57.2969 10.0625 56.6133 10.401 55.9883 10.8438C55.6237 11.1042 55.2786 11.3971 54.9531 11.7227C54.6276 12.0482 54.3281 12.4062 54.0547 12.7969L53.7227 9.86719H48.8008V31ZM78.2539 12.7773V1H72.8242V31H78.2539V15.7461C78.4622 15.4727 78.6901 15.2253 78.9375 15.0039C79.1979 14.7826 79.4844 14.5938 79.7969 14.4375C80.1354 14.2552 80.513 14.1185 80.9297 14.0273C81.3464 13.9362 81.7956 13.8906 82.2773 13.8906C82.9023 13.8906 83.4622 13.9753 83.957 14.1445C84.4518 14.3008 84.875 14.5482 85.2266 14.8867C85.5781 15.2253 85.8451 15.668 86.0273 16.2148C86.2227 16.7617 86.3203 17.4128 86.3203 18.168V31H91.75V18.207C91.75 16.6576 91.5612 15.3359 91.1836 14.2422C90.819 13.1354 90.3047 12.2305 89.6406 11.5273C88.9766 10.8242 88.1823 10.3099 87.2578 9.98438C86.3333 9.64583 85.3177 9.47656 84.2109 9.47656C83.4557 9.47656 82.7396 9.58724 82.0625 9.80859C81.3854 10.0299 80.7669 10.3424 80.207 10.7461C79.8424 11.0065 79.4909 11.3125 79.1523 11.6641C78.8268 12.0026 78.5273 12.3737 78.2539 12.7773ZM110.637 31H115.559V9.86719H110.109V24.6914C109.94 25.0299 109.738 25.3359 109.504 25.6094C109.27 25.8828 109.003 26.1172 108.703 26.3125C108.352 26.5339 107.941 26.7031 107.473 26.8203C107.017 26.9375 106.503 26.9961 105.93 26.9961C105.292 26.9961 104.751 26.918 104.309 26.7617C103.866 26.6055 103.508 26.3451 103.234 25.9805C102.961 25.6289 102.759 25.1602 102.629 24.5742C102.512 23.9883 102.453 23.2656 102.453 22.4062V9.86719H97.0234V22.3672C97.0234 23.9688 97.1992 25.3424 97.5508 26.4883C97.9154 27.6211 98.4232 28.5521 99.0742 29.2812C99.7253 30.0234 100.507 30.5638 101.418 30.9023C102.329 31.2409 103.332 31.4102 104.426 31.4102C105.624 31.4102 106.724 31.1107 107.727 30.5117C108.742 29.9128 109.608 29.0859 110.324 28.0312L110.637 31ZM124.25 9.86719H119.582V31H124.523V15.1797C124.589 15.0104 124.66 14.8542 124.738 14.7109C124.816 14.5677 124.908 14.444 125.012 14.3398C125.155 14.1966 125.318 14.0859 125.5 14.0078C125.682 13.9297 125.891 13.8906 126.125 13.8906C126.333 13.8906 126.529 13.9232 126.711 13.9883C126.893 14.0404 127.056 14.138 127.199 14.2812C127.329 14.4245 127.434 14.6263 127.512 14.8867C127.59 15.1471 127.629 15.4792 127.629 15.8828V31H132.414V15.4141C132.414 15.2578 132.414 15.1341 132.414 15.043C132.414 14.9518 132.414 14.8932 132.414 14.8672C132.479 14.724 132.557 14.6003 132.648 14.4961C132.74 14.3789 132.844 14.2747 132.961 14.1836C133.104 14.0924 133.254 14.0208 133.41 13.9688C133.579 13.9167 133.768 13.8906 133.977 13.8906C134.172 13.8906 134.361 13.9232 134.543 13.9883C134.738 14.0404 134.908 14.138 135.051 14.2812C135.194 14.4375 135.305 14.6458 135.383 14.9062C135.474 15.1667 135.52 15.4987 135.52 15.9023V31H140.461V15.9219C140.461 14.75 140.344 13.7604 140.109 12.9531C139.888 12.1328 139.576 11.4622 139.172 10.9414C138.755 10.4336 138.267 10.0625 137.707 9.82812C137.16 9.59375 136.568 9.47656 135.93 9.47656C135.422 9.47656 134.953 9.54167 134.523 9.67188C134.094 9.80208 133.71 9.98438 133.371 10.2188C133.098 10.401 132.844 10.6224 132.609 10.8828C132.388 11.1302 132.186 11.4102 132.004 11.7227C131.887 11.3971 131.743 11.1107 131.574 10.8633C131.418 10.6029 131.229 10.3815 131.008 10.1992C130.721 9.95182 130.383 9.76953 129.992 9.65234C129.602 9.53516 129.159 9.47656 128.664 9.47656C127.648 9.47656 126.783 9.74349 126.066 10.2773C125.363 10.7982 124.81 11.5143 124.406 12.4258L124.25 9.86719ZM174.172 31H179.621V13.8711H187.238V9.86719H179.621V8.71484C179.621 8.08984 179.699 7.52995 179.855 7.03516C180.025 6.54036 180.279 6.1237 180.617 5.78516C180.995 5.38151 181.503 5.07552 182.141 4.86719C182.779 4.65885 183.553 4.55469 184.465 4.55469C185.311 4.55469 186.047 4.59375 186.672 4.67188C187.297 4.75 187.857 4.84115 188.352 4.94531L188.703 0.6875C188.26 0.609375 187.831 0.53776 187.414 0.472656C187.01 0.407552 186.607 0.348958 186.203 0.296875C185.799 0.244792 185.383 0.205729 184.953 0.179688C184.536 0.140625 184.1 0.121094 183.645 0.121094C182.199 0.121094 180.891 0.309896 179.719 0.6875C178.547 1.05208 177.551 1.59896 176.73 2.32812C175.91 3.05729 175.279 3.95573 174.836 5.02344C174.393 6.09115 174.172 7.32161 174.172 8.71484V9.86719H168.625V13.8711H174.172V31ZM206.145 31H211.652V30.668C211.379 30.1341 211.171 29.4961 211.027 28.7539C210.884 28.0117 210.812 27.0742 210.812 25.9414V16.8789C210.812 15.6549 210.585 14.5807 210.129 13.6562C209.673 12.7188 209.042 11.944 208.234 11.332C207.427 10.7201 206.47 10.2578 205.363 9.94531C204.27 9.63281 203.085 9.47656 201.809 9.47656C200.389 9.47656 199.126 9.65885 198.02 10.0234C196.926 10.375 196.001 10.8568 195.246 11.4688C194.478 12.0807 193.892 12.7904 193.488 13.5977C193.098 14.4049 192.902 15.2578 192.902 16.1562H198.332C198.332 15.7786 198.384 15.4336 198.488 15.1211C198.605 14.8086 198.781 14.5417 199.016 14.3203C199.276 14.0729 199.615 13.8841 200.031 13.7539C200.448 13.6107 200.943 13.5391 201.516 13.5391C202.167 13.5391 202.733 13.6237 203.215 13.793C203.71 13.9492 204.12 14.1771 204.445 14.4766C204.758 14.763 204.992 15.1081 205.148 15.5117C205.305 15.9023 205.383 16.3451 205.383 16.8398V18.0898H202.355C200.793 18.0898 199.406 18.2331 198.195 18.5195C196.997 18.793 195.988 19.1966 195.168 19.7305C194.257 20.3164 193.573 21.0651 193.117 21.9766C192.661 22.875 192.434 23.9102 192.434 25.082C192.434 25.9935 192.616 26.8398 192.98 27.6211C193.345 28.3893 193.853 29.0534 194.504 29.6133C195.155 30.1732 195.93 30.6094 196.828 30.9219C197.74 31.2344 198.736 31.3906 199.816 31.3906C200.48 31.3906 201.099 31.3255 201.672 31.1953C202.245 31.0781 202.772 30.9089 203.254 30.6875C203.723 30.4792 204.152 30.2318 204.543 29.9453C204.934 29.6589 205.279 29.3529 205.578 29.0273C205.643 29.4049 205.721 29.763 205.812 30.1016C205.904 30.4401 206.014 30.7396 206.145 31ZM200.969 27.1914C200.461 27.1914 200.012 27.1328 199.621 27.0156C199.243 26.8854 198.924 26.7161 198.664 26.5078C198.404 26.2865 198.202 26.0195 198.059 25.707C197.928 25.3815 197.863 25.0299 197.863 24.6523C197.863 24.1706 197.954 23.7279 198.137 23.3242C198.319 22.9076 198.599 22.5495 198.977 22.25C199.354 21.9635 199.842 21.7422 200.441 21.5859C201.04 21.4167 201.763 21.332 202.609 21.332H205.383V24.9648C205.227 25.2383 205.012 25.5117 204.738 25.7852C204.465 26.0456 204.139 26.2799 203.762 26.4883C203.384 26.6966 202.961 26.8659 202.492 26.9961C202.023 27.1263 201.516 27.1914 200.969 27.1914ZM223.684 31H228.781L236.809 9.86719H231.145L226.516 24.7695L226.223 26.2539L225.93 24.7695L221.281 9.86719H215.617L223.684 31ZM240.246 20.2383V20.6484C240.246 22.1979 240.467 23.6302 240.91 24.9453C241.353 26.2474 242.004 27.3802 242.863 28.3438C243.71 29.3073 244.751 30.0625 245.988 30.6094C247.238 31.1432 248.658 31.4102 250.246 31.4102C251.822 31.4102 253.228 31.1432 254.465 30.6094C255.702 30.0625 256.743 29.3073 257.59 28.3438C258.436 27.3802 259.081 26.2474 259.523 24.9453C259.966 23.6302 260.188 22.1979 260.188 20.6484V20.2383C260.188 18.7018 259.966 17.2826 259.523 15.9805C259.081 14.6654 258.436 13.526 257.59 12.5625C256.73 11.599 255.682 10.8438 254.445 10.2969C253.208 9.75 251.796 9.47656 250.207 9.47656C248.618 9.47656 247.206 9.75 245.969 10.2969C244.745 10.8438 243.71 11.599 242.863 12.5625C242.004 13.526 241.353 14.6654 240.91 15.9805C240.467 17.2826 240.246 18.7018 240.246 20.2383ZM245.676 20.6484V20.2383C245.676 19.3789 245.76 18.5651 245.93 17.7969C246.099 17.0286 246.366 16.3516 246.73 15.7656C247.095 15.1797 247.564 14.7174 248.137 14.3789C248.71 14.0404 249.4 13.8711 250.207 13.8711C251.027 13.8711 251.724 14.0404 252.297 14.3789C252.87 14.7174 253.339 15.1797 253.703 15.7656C254.055 16.3516 254.315 17.0286 254.484 17.7969C254.654 18.5651 254.738 19.3789 254.738 20.2383V20.6484C254.738 21.5339 254.654 22.3672 254.484 23.1484C254.315 23.9167 254.055 24.5872 253.703 25.1602C253.339 25.7461 252.87 26.2083 252.297 26.5469C251.724 26.8854 251.04 27.0547 250.246 27.0547C249.426 27.0547 248.723 26.8854 248.137 26.5469C247.564 26.2083 247.095 25.7461 246.73 25.1602C246.366 24.5872 246.099 23.9167 245.93 23.1484C245.76 22.3672 245.676 21.5339 245.676 20.6484ZM280.188 9.47656C278.768 9.47656 277.46 9.82161 276.262 10.5117C275.064 11.1888 274.035 12.1263 273.176 13.3242L273.137 12.8555L272.922 9.86719H267.863V31H273.293V18.3047C273.54 17.7057 273.853 17.1849 274.23 16.7422C274.608 16.2995 275.064 15.9349 275.598 15.6484C276.04 15.401 276.542 15.2188 277.102 15.1016C277.674 14.9714 278.312 14.9062 279.016 14.9062C279.693 14.9062 280.402 14.9518 281.145 15.043C281.9 15.1211 282.635 15.2448 283.352 15.4141L284.152 10.0039C283.723 9.8737 283.156 9.75651 282.453 9.65234C281.763 9.53516 281.008 9.47656 280.188 9.47656ZM290.48 9.86719V14.3008H296.496V26.5859H290.48V31H307.707V26.5859H301.984V9.86719H290.48ZM296.105 4.45703C296.105 4.8737 296.177 5.26432 296.32 5.62891C296.477 5.98047 296.691 6.27995 296.965 6.52734C297.238 6.78776 297.564 6.98958 297.941 7.13281C298.332 7.27604 298.762 7.34766 299.23 7.34766C300.194 7.34766 300.956 7.08073 301.516 6.54688C302.089 6 302.375 5.30339 302.375 4.45703C302.375 3.61068 302.089 2.92057 301.516 2.38672C300.956 1.83984 300.194 1.56641 299.23 1.56641C298.762 1.56641 298.332 1.63802 297.941 1.78125C297.564 1.92448 297.238 2.11979 296.965 2.36719C296.691 2.6276 296.477 2.9401 296.32 3.30469C296.177 3.65625 296.105 4.04036 296.105 4.45703ZM323.02 4.69141H317.59V9.86719H312.766V13.8711H317.59V23.4805C317.59 24.8737 317.772 26.0716 318.137 27.0742C318.501 28.0638 319.022 28.8776 319.699 29.5156C320.363 30.1667 321.164 30.6484 322.102 30.9609C323.052 31.2604 324.107 31.4102 325.266 31.4102C325.865 31.4102 326.47 31.3776 327.082 31.3125C327.707 31.2604 328.306 31.1823 328.879 31.0781C329.452 30.974 329.992 30.8438 330.5 30.6875C331.008 30.5182 331.451 30.3229 331.828 30.1016L331.301 26.3711C331.053 26.4362 330.754 26.5013 330.402 26.5664C330.064 26.6315 329.699 26.6901 329.309 26.7422C328.905 26.8073 328.482 26.8594 328.039 26.8984C327.609 26.9375 327.186 26.957 326.77 26.957C326.197 26.957 325.676 26.8919 325.207 26.7617C324.751 26.6315 324.361 26.4102 324.035 26.0977C323.71 25.7982 323.456 25.3945 323.273 24.8867C323.104 24.3659 323.02 23.7214 323.02 22.9531V13.8711H330.91V9.86719H323.02V4.69141ZM336.34 20.2383V20.6484C336.34 22.1979 336.561 23.6302 337.004 24.9453C337.447 26.2474 338.098 27.3802 338.957 28.3438C339.803 29.3073 340.845 30.0625 342.082 30.6094C343.332 31.1432 344.751 31.4102 346.34 31.4102C347.915 31.4102 349.322 31.1432 350.559 30.6094C351.796 30.0625 352.837 29.3073 353.684 28.3438C354.53 27.3802 355.174 26.2474 355.617 24.9453C356.06 23.6302 356.281 22.1979 356.281 20.6484V20.2383C356.281 18.7018 356.06 17.2826 355.617 15.9805C355.174 14.6654 354.53 13.526 353.684 12.5625C352.824 11.599 351.776 10.8438 350.539 10.2969C349.302 9.75 347.889 9.47656 346.301 9.47656C344.712 9.47656 343.299 9.75 342.062 10.2969C340.839 10.8438 339.803 11.599 338.957 12.5625C338.098 13.526 337.447 14.6654 337.004 15.9805C336.561 17.2826 336.34 18.7018 336.34 20.2383ZM341.77 20.6484V20.2383C341.77 19.3789 341.854 18.5651 342.023 17.7969C342.193 17.0286 342.46 16.3516 342.824 15.7656C343.189 15.1797 343.658 14.7174 344.23 14.3789C344.803 14.0404 345.493 13.8711 346.301 13.8711C347.121 13.8711 347.818 14.0404 348.391 14.3789C348.964 14.7174 349.432 15.1797 349.797 15.7656C350.148 16.3516 350.409 17.0286 350.578 17.7969C350.747 18.5651 350.832 19.3789 350.832 20.2383V20.6484C350.832 21.5339 350.747 22.3672 350.578 23.1484C350.409 23.9167 350.148 24.5872 349.797 25.1602C349.432 25.7461 348.964 26.2083 348.391 26.5469C347.818 26.8854 347.134 27.0547 346.34 27.0547C345.52 27.0547 344.816 26.8854 344.23 26.5469C343.658 26.2083 343.189 25.7461 342.824 25.1602C342.46 24.5872 342.193 23.9167 342.023 23.1484C341.854 22.3672 341.77 21.5339 341.77 20.6484ZM398.332 31H403.84V30.668C403.566 30.1341 403.358 29.4961 403.215 28.7539C403.072 28.0117 403 27.0742 403 25.9414V16.8789C403 15.6549 402.772 14.5807 402.316 13.6562C401.861 12.7188 401.229 11.944 400.422 11.332C399.615 10.7201 398.658 10.2578 397.551 9.94531C396.457 9.63281 395.272 9.47656 393.996 9.47656C392.577 9.47656 391.314 9.65885 390.207 10.0234C389.113 10.375 388.189 10.8568 387.434 11.4688C386.665 12.0807 386.079 12.7904 385.676 13.5977C385.285 14.4049 385.09 15.2578 385.09 16.1562H390.52C390.52 15.7786 390.572 15.4336 390.676 15.1211C390.793 14.8086 390.969 14.5417 391.203 14.3203C391.464 14.0729 391.802 13.8841 392.219 13.7539C392.635 13.6107 393.13 13.5391 393.703 13.5391C394.354 13.5391 394.921 13.6237 395.402 13.793C395.897 13.9492 396.307 14.1771 396.633 14.4766C396.945 14.763 397.18 15.1081 397.336 15.5117C397.492 15.9023 397.57 16.3451 397.57 16.8398V18.0898H394.543C392.98 18.0898 391.594 18.2331 390.383 18.5195C389.185 18.793 388.176 19.1966 387.355 19.7305C386.444 20.3164 385.76 21.0651 385.305 21.9766C384.849 22.875 384.621 23.9102 384.621 25.082C384.621 25.9935 384.803 26.8398 385.168 27.6211C385.533 28.3893 386.04 29.0534 386.691 29.6133C387.342 30.1732 388.117 30.6094 389.016 30.9219C389.927 31.2344 390.923 31.3906 392.004 31.3906C392.668 31.3906 393.286 31.3255 393.859 31.1953C394.432 31.0781 394.96 30.9089 395.441 30.6875C395.91 30.4792 396.34 30.2318 396.73 29.9453C397.121 29.6589 397.466 29.3529 397.766 29.0273C397.831 29.4049 397.909 29.763 398 30.1016C398.091 30.4401 398.202 30.7396 398.332 31ZM393.156 27.1914C392.648 27.1914 392.199 27.1328 391.809 27.0156C391.431 26.8854 391.112 26.7161 390.852 26.5078C390.591 26.2865 390.389 26.0195 390.246 25.707C390.116 25.3815 390.051 25.0299 390.051 24.6523C390.051 24.1706 390.142 23.7279 390.324 23.3242C390.507 22.9076 390.786 22.5495 391.164 22.25C391.542 21.9635 392.03 21.7422 392.629 21.5859C393.228 21.4167 393.951 21.332 394.797 21.332H397.57V24.9648C397.414 25.2383 397.199 25.5117 396.926 25.7852C396.652 26.0456 396.327 26.2799 395.949 26.4883C395.572 26.6966 395.148 26.8659 394.68 26.9961C394.211 27.1263 393.703 27.1914 393.156 27.1914ZM410.598 9.86719V14.3008H416.613V26.5859H410.598V31H427.824V26.5859H422.102V9.86719H410.598ZM416.223 4.45703C416.223 4.8737 416.294 5.26432 416.438 5.62891C416.594 5.98047 416.809 6.27995 417.082 6.52734C417.355 6.78776 417.681 6.98958 418.059 7.13281C418.449 7.27604 418.879 7.34766 419.348 7.34766C420.311 7.34766 421.073 7.08073 421.633 6.54688C422.206 6 422.492 5.30339 422.492 4.45703C422.492 3.61068 422.206 2.92057 421.633 2.38672C421.073 1.83984 420.311 1.56641 419.348 1.56641C418.879 1.56641 418.449 1.63802 418.059 1.78125C417.681 1.92448 417.355 2.11979 417.082 2.36719C416.809 2.6276 416.594 2.9401 416.438 3.30469C416.294 3.65625 416.223 4.04036 416.223 4.45703ZM433.176 31H438.625V15.9805C438.807 15.694 439.009 15.4336 439.23 15.1992C439.452 14.9648 439.699 14.763 439.973 14.5938C440.311 14.3594 440.695 14.1836 441.125 14.0664C441.568 13.9492 442.049 13.8906 442.57 13.8906C443.195 13.8906 443.755 13.9557 444.25 14.0859C444.745 14.2031 445.168 14.418 445.52 14.7305C445.871 15.043 446.138 15.4727 446.32 16.0195C446.516 16.5534 446.613 17.237 446.613 18.0703V31H452.043V17.9922C452.043 16.4557 451.861 15.1536 451.496 14.0859C451.145 13.0052 450.65 12.1198 450.012 11.4297C449.361 10.7526 448.592 10.2578 447.707 9.94531C446.822 9.63281 445.845 9.47656 444.777 9.47656C443.944 9.47656 443.156 9.59375 442.414 9.82812C441.672 10.0625 440.988 10.401 440.363 10.8438C439.999 11.1042 439.654 11.3971 439.328 11.7227C439.003 12.0482 438.703 12.4062 438.43 12.7969L438.098 9.86719H433.176V31ZM456.633 20.2773V20.6875C456.633 22.224 456.822 23.6497 457.199 24.9648C457.577 26.2669 458.124 27.3932 458.84 28.3438C459.543 29.2943 460.402 30.043 461.418 30.5898C462.447 31.1237 463.605 31.3906 464.895 31.3906C466.079 31.3906 467.121 31.1628 468.02 30.707C468.918 30.2513 469.699 29.6133 470.363 28.793L470.637 31H475.539V1H470.09V11.7617C469.439 11.0326 468.69 10.4727 467.844 10.082C467.01 9.67839 466.04 9.47656 464.934 9.47656C463.618 9.47656 462.447 9.73698 461.418 10.2578C460.402 10.7786 459.536 11.5143 458.82 12.4648C458.104 13.4154 457.557 14.5547 457.18 15.8828C456.815 17.2109 456.633 18.6758 456.633 20.2773ZM462.062 20.6875V20.2773C462.062 19.3919 462.141 18.5651 462.297 17.7969C462.453 17.0156 462.701 16.332 463.039 15.7461C463.378 15.1732 463.814 14.724 464.348 14.3984C464.895 14.0599 465.552 13.8906 466.32 13.8906C467.245 13.8906 468.013 14.0924 468.625 14.4961C469.237 14.8867 469.725 15.4401 470.09 16.1562V24.7109C469.725 25.4141 469.23 25.9674 468.605 26.3711C467.993 26.7747 467.219 26.9766 466.281 26.9766C465.513 26.9766 464.862 26.8138 464.328 26.4883C463.794 26.1628 463.358 25.7135 463.02 25.1406C462.681 24.5807 462.434 23.9232 462.277 23.168C462.134 22.3997 462.062 21.5729 462.062 20.6875ZM494.426 31H499.934V30.668C499.66 30.1341 499.452 29.4961 499.309 28.7539C499.165 28.0117 499.094 27.0742 499.094 25.9414V16.8789C499.094 15.6549 498.866 14.5807 498.41 13.6562C497.954 12.7188 497.323 11.944 496.516 11.332C495.708 10.7201 494.751 10.2578 493.645 9.94531C492.551 9.63281 491.366 9.47656 490.09 9.47656C488.671 9.47656 487.408 9.65885 486.301 10.0234C485.207 10.375 484.283 10.8568 483.527 11.4688C482.759 12.0807 482.173 12.7904 481.77 13.5977C481.379 14.4049 481.184 15.2578 481.184 16.1562H486.613C486.613 15.7786 486.665 15.4336 486.77 15.1211C486.887 14.8086 487.062 14.5417 487.297 14.3203C487.557 14.0729 487.896 13.8841 488.312 13.7539C488.729 13.6107 489.224 13.5391 489.797 13.5391C490.448 13.5391 491.014 13.6237 491.496 13.793C491.991 13.9492 492.401 14.1771 492.727 14.4766C493.039 14.763 493.273 15.1081 493.43 15.5117C493.586 15.9023 493.664 16.3451 493.664 16.8398V18.0898H490.637C489.074 18.0898 487.688 18.2331 486.477 18.5195C485.279 18.793 484.27 19.1966 483.449 19.7305C482.538 20.3164 481.854 21.0651 481.398 21.9766C480.943 22.875 480.715 23.9102 480.715 25.082C480.715 25.9935 480.897 26.8398 481.262 27.6211C481.626 28.3893 482.134 29.0534 482.785 29.6133C483.436 30.1732 484.211 30.6094 485.109 30.9219C486.021 31.2344 487.017 31.3906 488.098 31.3906C488.762 31.3906 489.38 31.3255 489.953 31.1953C490.526 31.0781 491.053 30.9089 491.535 30.6875C492.004 30.4792 492.434 30.2318 492.824 29.9453C493.215 29.6589 493.56 29.3529 493.859 29.0273C493.924 29.4049 494.003 29.763 494.094 30.1016C494.185 30.4401 494.296 30.7396 494.426 31ZM489.25 27.1914C488.742 27.1914 488.293 27.1328 487.902 27.0156C487.525 26.8854 487.206 26.7161 486.945 26.5078C486.685 26.2865 486.483 26.0195 486.34 25.707C486.21 25.3815 486.145 25.0299 486.145 24.6523C486.145 24.1706 486.236 23.7279 486.418 23.3242C486.6 22.9076 486.88 22.5495 487.258 22.25C487.635 21.9635 488.124 21.7422 488.723 21.5859C489.322 21.4167 490.044 21.332 490.891 21.332H493.664V24.9648C493.508 25.2383 493.293 25.5117 493.02 25.7852C492.746 26.0456 492.421 26.2799 492.043 26.4883C491.665 26.6966 491.242 26.8659 490.773 26.9961C490.305 27.1263 489.797 27.1914 489.25 27.1914Z" fill="#4E5455"/>
</svg>
